#!OML:ASF F:\VICON\USERDATA\INSTALL\rory3\rory3.ASF
:FULLY-SPECIFIED
:DEGREES
941
root -0.738095 15.4043 8.73584 15.5684 -3.21788 0.999241
lowerback -1.33262 -2.83512 -0.268365
upperback -5.61718 -3.75604 1.45368
thorax -4.93932 -1.83118 1.76271
lowerneck -14.4509 -7.46652 -7.99292
upperneck 17.3454 -8.81887 1.86355
head 8.20962 -4.53405 0.892581
rclavicle 2.8128e-014 7.15625e-015
rhumerus -44.6125 0.401904 -83.2651
rradius 42.6245
rwrist 8.33711
rhand -26.2767 -60.9963
rfingers 7.12502
rthumb 0.278489 -269.024
lclavicle 2.8128e-014 7.15625e-015
lhumerus -40.6222 -13.5291 83.8321
lradius 48.2885
lwrist -1.49128
lhand -34.8723 -46.578
lfingers 7.12502
lthumb -8.02153 -16.7503
rfemur -47.5357 -0.455715 15.6236
rtibia 71.0746
rfoot -28.4989 -15.3574
rtoes -17.0479
lfemur -42.8086 7.8388 -10.9983
ltibia 62.8474
lfoot -27.8039 12.2125
ltoes -22.3407
942
root -0.713092 15.237 8.71039 16.4787 -2.98976 0.309463
lowerback -1.90627 -2.81458 0.235744
upperback -5.73011 -3.71503 1.71038
thorax -4.74899 -1.82926 1.7182
lowerneck -15.0043 -7.7354 -7.75278
upperneck 17.0668 -9.12481 1.56117
head 8.20137 -4.68347 0.701757
rclavicle -2.16427e-014 3.69739e-014
rhumerus -43.657 0.320993 -83.1141
rradius 41.9698
rwrist 8.71609
rhand -26.2942 -61.2118
rfingers 7.12502
rthumb 0.261563 -268.809
lclavicle -2.16427e-014 3.69739e-014
lhumerus -39.9654 -12.7672 83.2936
lradius 47.6896
lwrist -2.96731
lhand -34.9977 -47.0379
lfingers 7.12502
lthumb -8.14256 -17.2148
rfemur -49.1788 -0.117864 16.4725
rtibia 72.391
rfoot -30.3373 -17.3532
rtoes -17.1451
lfemur -44.9893 8.48235 -10.4889
ltibia 64.8605
lfoot -29.3718 13.1024
ltoes -22.2888
943
root -0.678282 15.0781 8.67209 17.5236 -3.63514 -0.262996
lowerback -2.56405 -2.52094 0.600573
upperback -5.93401 -3.32225 1.81516
thorax -4.61546 -1.64855 1.58916
lowerneck -14.2538 -7.9059 -8.17071
upperneck 15.7982 -9.44517 2.30226
head 7.72066 -4.79075 1.01893
rclavicle -6.5102e-015 5.1684e-015
rhumerus -42.7545 0.314018 -83.0347
rradius 41.1618
rwrist 9.08483
rhand -26.5556 -60.3249
rfingers 7.12502
rthumb 0.00908573 -269.695
lclavicle -6.5102e-015 5.1684e-015
lhumerus -39.3362 -11.9052 82.6565
lradius 47.089
lwrist -4.57311
lhand -34.8962 -47.7104
lfingers 7.12502
lthumb -8.04457 -17.8835
rfemur -51.3537 0.846972 16.8436
rtibia 73.7593
rfoot -31.7252 -18.5029
rtoes -15.414
lfemur -47.0546 9.57677 -10.3284
ltibia 66.8485
lfoot -30.525 13.8321
ltoes -21.8835
944
root -0.637642 14.9726 8.63473 17.4318 -3.30293 -0.59334
lowerback -2.23262 -2.53905 1.11435
upperback -5.81365 -3.3391 1.80163
thorax -4.70716 -1.67891 1.30302
lowerneck -10.9419 -7.63373 -9.99269
upperneck 12.1369 -9.47514 5.57881
head 6.22271 -4.6634 2.51669
rclavicle -4.05024e-015 -1.51076e-014
rhumerus -41.7474 0.127733 -82.9258
rradius 40.3189
rwrist 9.51876
rhand -26.4559 -59.9321
rfingers 7.12502
rthumb 0.105444 -89.9119
lclavicle -4.05024e-015 -1.51076e-014
lhumerus -38.6958 -11.0949 82.0118
lradius 46.5326
lwrist -5.97676
lhand -34.6104 -48.3625
lfingers 7.12502
lthumb -7.76873 -18.5252
rfemur -51.9658 0.935453 17.2781
rtibia 75.046
rfoot -32.1885 -20.1199
rtoes -14.5429
lfemur -48.0536 9.43425 -9.95868
ltibia 68.6605
lfoot -31.2224 14.4715
ltoes -22.2351
